<svg xmlns="http://www.w3.org/2000/svg" xmlns:xlink="http://www.w3.org/1999/xlink" width="282" height="102" viewBox="0 0 282 102">
  <defs>
    <clipPath id="clip-path">
      <path id="Path_1549" data-name="Path 1549" d="M228,487h41v13H228Zm0,0"/>
    </clipPath>
    <clipPath id="clip-path-2">
      <path id="Path_1548" data-name="Path 1548" d="M231.738,493.008a19.672,19.672,0,0,0,5.129,4.144,22.057,22.057,0,0,0,2.113,1.043,26.233,26.233,0,0,0,19.125,0,19.67,19.67,0,0,0,7.2-5.187A22.163,22.163,0,0,0,269,487H228a22.263,22.263,0,0,0,3.738,6.008"/>
    </clipPath>
    <clipPath id="clip-path-3">
      <path id="Path_1552" data-name="Path 1552" d="M226,474h46v14H226Zm0,0"/>
    </clipPath>
    <clipPath id="clip-path-4">
      <path id="Path_1551" data-name="Path 1551" d="M226,474.035a38.664,38.664,0,0,0,1.609,11.6c.258.82.539,1.609.852,2.367h41.117q.457-1.137.836-2.367a39.174,39.174,0,0,0,1.586-11.6V474H226Zm0,0"/>
    </clipPath>
    <clipPath id="clip-path-5">
      <path id="Path_1555" data-name="Path 1555" d="M226,450h46v25H226Zm0,0"/>
    </clipPath>
    <clipPath id="clip-path-6">
      <path id="Path_1554" data-name="Path 1554" d="M270.414,464.555c-.242-.715-.512-1.407-.8-2.071a21.19,21.19,0,0,0-3.742-5.808,19.565,19.565,0,0,0-7.215-4.957,27.607,27.607,0,0,0-19.179,0c-.625.254-1.227.539-1.813.84a19.46,19.46,0,0,0-5.453,4.117,21.217,21.217,0,0,0-3.777,5.808c-.3.664-.575,1.356-.821,2.071A31.845,31.845,0,0,0,226,475h46a32.262,32.262,0,0,0-1.586-10.445"/>
    </clipPath>
    <clipPath id="clip-path-7">
      <path id="Path_1581" data-name="Path 1581" d="M142,423H424V525H142Zm0,0"/>
    </clipPath>
    <clipPath id="clip-path-8">
      <path id="Path_1580" data-name="Path 1580" d="M277.621,488.734a30.806,30.806,0,0,1-6.191,11.043,26.808,26.808,0,0,1-9.817,6.938,36.462,36.462,0,0,1-26.093,0,29.829,29.829,0,0,1-2.887-1.395,26.721,26.721,0,0,1-7-5.543,31.042,31.042,0,0,1-6.258-11.043,50.726,50.726,0,0,1,0-29.468,31.407,31.407,0,0,1,6.258-11.075,26.6,26.6,0,0,1,7.418-5.789c.8-.422,1.613-.828,2.469-1.183a36.462,36.462,0,0,1,26.093,0,26.578,26.578,0,0,1,9.817,6.972,31.167,31.167,0,0,1,6.191,11.075,51.424,51.424,0,0,1,0,29.468ZM424,430.2a6.064,6.064,0,0,0-6.035-6.09H361.492V484.77q0,2,.106,4.312c0,.1.011.2.015.3v3.969l-35.984-46.254-15.574-20.02a14.57,14.57,0,0,0-1.371-1.554,4.942,4.942,0,0,0-1.266-.9,4.8,4.8,0,0,0-1.469-.414,17.536,17.536,0,0,0-2.054-.1h-9.641V451.8a47.4,47.4,0,0,0-9.414-14.27,46.878,46.878,0,0,0-15.8-10.664A52.528,52.528,0,0,0,248.586,423a53.175,53.175,0,0,0-20.488,3.828,49.152,49.152,0,0,0-7.719,4.024,45.05,45.05,0,0,0-8.152,6.64A47.91,47.91,0,0,0,202,453.676a58.787,58.787,0,0,0,0,40.648,49.316,49.316,0,0,0,5.922,11.012,24.713,24.713,0,0,1-4.664,2.2,28.736,28.736,0,0,1-5.61,1.313,50.633,50.633,0,0,1-6.8.414,29.166,29.166,0,0,1-11.766-2.379,27.415,27.415,0,0,1-9.512-6.867,33.087,33.087,0,0,1-6.394-11.043A44.064,44.064,0,0,1,160.813,474a42.874,42.874,0,0,1,2.359-14.664,32.333,32.333,0,0,1,6.566-11.078,28.586,28.586,0,0,1,10.059-7,32.859,32.859,0,0,1,12.824-2.449h.086a7.255,7.255,0,0,0,7.285-7.262V423.43c-.246-.032-.508-.039-.758-.067q-1-.111-2.035-.183c-.344-.028-.683-.059-1.035-.078-.219-.012-.445-.008-.664-.02-.9-.039-1.8-.082-2.742-.082a54.706,54.706,0,0,0-20.625,3.762A46.327,46.327,0,0,0,145.7,453.4,55.677,55.677,0,0,0,142,474a61.1,61.1,0,0,0,3.316,20.5,46.276,46.276,0,0,0,9.543,16.149,43.59,43.59,0,0,0,15.02,10.558,49.371,49.371,0,0,0,19.8,3.8q12.311,0,21.105-4a40.6,40.6,0,0,0,8.067-4.863,48.473,48.473,0,0,0,9.246,5.035,56.648,56.648,0,0,0,40.941,0,46.2,46.2,0,0,0,15.8-10.664,47.743,47.743,0,0,0,9.414-14.3V523.9h16.211V462.613q0-1.793-.106-3.968c-.066-1.446-.168-2.911-.3-4.383l8.648,11.117,43.067,55.344a8.093,8.093,0,0,0,2.8,2.484,8.208,8.208,0,0,0,3.379.68c.086,0,.164.011.246.011h11.957V483.246h29.559a7.482,7.482,0,0,0,7.449-7.516v-7.32H380.152V438.871H424Zm0,0"/>
    </clipPath>
  </defs>
  <g id="conf_logo" transform="translate(-142 -423)">
    <g id="Group_1134" data-name="Group 1134" clip-path="url(#clip-path)">
      <g id="Group_1133" data-name="Group 1133" clip-path="url(#clip-path-2)">
        <path id="Path_1547" data-name="Path 1547" d="M223,505h51V482H223Zm0,0" fill="#ff4118"/>
      </g>
    </g>
    <g id="Group_1136" data-name="Group 1136" clip-path="url(#clip-path-3)">
      <g id="Group_1135" data-name="Group 1135" clip-path="url(#clip-path-4)">
        <path id="Path_1550" data-name="Path 1550" d="M221,493h56V469H221Zm0,0" fill="#0049a3"/>
      </g>
    </g>
    <g id="Group_1138" data-name="Group 1138" clip-path="url(#clip-path-5)">
      <g id="Group_1137" data-name="Group 1137" clip-path="url(#clip-path-6)">
        <path id="Path_1553" data-name="Path 1553" d="M221,480h56V445H221Zm0,0" fill="#ffde18"/>
      </g>
    </g>
    <g id="Group_1155" data-name="Group 1155" clip-path="url(#clip-path-7)">
      <g id="Group_1154" data-name="Group 1154" clip-path="url(#clip-path-8)">
        <path id="Path_1579" data-name="Path 1579" d="M137,530H429V418H137Zm0,0" fill="#fff"/>
      </g>
    </g>
  </g>
</svg>
